# xmcd CD database file
#
# Track frame offsets:
#	151
#	11995
#	23682
#	38164
#	48468
#	60633
#	72740
#	86457
#	100121
#	111351
#	124084
#	135519
#	147611
#	158469
#	172311
#	183761
#	192510
#	205945
#	216651
#	230306
#	240880
#	251547
#	264072
#	274076
#	288339
#	302779
#
# Disc length: 4176 seconds
#
# Revision: 2
# Processed by: cddbd v1.4PL0 Copyright (c) Steve Scherf et al.
# Submitted via: CDex 1.40Release
#
DISCID=7c104e1a
DTITLE=Various Artist - The Specialty Story - Disc 3
DYEAR=1900
DGENRE=
TTITLE0=Lloyd Price - Oooh Oooh Oooh
TTITLE1=Lloyd Price - Restless Heart
TTITLE2=Dream Girl/Jesse and Marvin
TTITLE3=Lloyd Price - Tell Me Pretty Baby
TTITLE4=Lloyd Price - Ain't It A Shame
TTITLE5=Frank Motley and His Crew - Frantic
TTITLE6=Alex Bradford - Too Close To Heaven
TTITLE7=Swan Silvertones - I'm Coming Home
TTITLE8=Pilgram Travelers - I've Got A New Home
TTITLE9=Mercy Dee Walton - One Room Country Shack
TTITLE10=Frankie Lee Sims - Lucy Mae Blues
TTITLE11=Roy Milton and His Solid Senders - Early In The Morning
TTITLE12=H-Bomb Ferguson - She's Been Gone
TTITLE13=Floyd Dixon - Hard Living Alone
TTITLE14=Jimmy Liggins and His 3-D Music - Drunk
TTITLE15=Little Temple and His 88 - I Ate The Wrong Part
TTITLE16=Honeyboy - Bloodstains On The Wall
TTITLE17=Marvin and Johnny - Baby Doll
TTITLE18=Guitar Slim - The Things That I Used To Do
TTITLE19=Earl King - I'm Your Best Bet Baby
TTITLE20=The Chosen Gospel Singer w/Lou Rawls - No Room In The Hotel
TTITLE21=John Lee Hooker - I'm Mad
TTITLE22=Daddy Cleanhead - Something's Going On In My Room
TTITLE23=Chimes - Zindy Lou
TTITLE24=Soul Stirrers w/Sam Cooke - One More River
TTITLE25=Jesse Belvin - Where's My Girl
EXTD=
EXTT0=
EXTT1=
EXTT2=
EXTT3=
EXTT4=
EXTT5=
EXTT6=
EXTT7=
EXTT8=
EXTT9=
EXTT10=
EXTT11=
EXTT12=
EXTT13=
EXTT14=
EXTT15=
EXTT16=
EXTT17=
EXTT18=
EXTT19=
EXTT20=
EXTT21=
EXTT22=
EXTT23=
EXTT24=
EXTT25=
PLAYORDER=
